<svg width="23" height="11" viewBox="0 0 23 11" fill="none" xmlns="http://www.w3.org/2000/svg">
<path d="M11.5 10.9546C10.8703 10.9557 10.2466 10.8327 9.66451 10.5926C9.08241 10.3526 8.55332 10.0001 8.10751 9.55542L0.277932 1.72583C0.0974738 1.54537 -0.00390625 1.30062 -0.00390625 1.04542C-0.00390625 0.790209 0.0974738 0.545456 0.277932 0.364998C0.458389 0.184541 0.703142 0.0831604 0.958348 0.0831604C1.21355 0.0831604 1.45831 0.184541 1.63876 0.364998L9.46835 8.19458C10.0074 8.73298 10.7381 9.03539 11.5 9.03539C12.2619 9.03539 12.9926 8.73298 13.5317 8.19458L21.3613 0.364998C21.5417 0.184541 21.7865 0.0831604 22.0417 0.0831604C22.2969 0.0831604 22.5416 0.184541 22.7221 0.364998C22.9026 0.545456 23.0039 0.790209 23.0039 1.04542C23.0039 1.30062 22.9026 1.54537 22.7221 1.72583L14.8925 9.55542C14.4467 10.0001 13.9176 10.3526 13.3355 10.5926C12.7534 10.8327 12.1297 10.9557 11.5 10.9546Z" fill="black"/>
</svg>
