<svg width="23" height="24" viewBox="0 0 23 24" fill="none" xmlns="http://www.w3.org/2000/svg">
<g clip-path="url(#clip0_39_183)">
<path d="M16.4546 12C16.4557 12.6297 16.3327 13.2534 16.0926 13.8355C15.8526 14.4176 15.5001 14.9467 15.0554 15.3925L7.22583 23.2221C7.04537 23.4025 6.80062 23.5039 6.54542 23.5039C6.29021 23.5039 6.04546 23.4025 5.865 23.2221C5.68454 23.0416 5.58316 22.7969 5.58316 22.5417C5.58316 22.2864 5.68454 22.0417 5.865 21.8612L13.6946 14.0317C14.233 13.4926 14.5354 12.7619 14.5354 12C14.5354 11.2381 14.233 10.5074 13.6946 9.96832L5.865 2.13873C5.68454 1.95828 5.58316 1.71353 5.58316 1.45832C5.58316 1.20311 5.68454 0.958361 5.865 0.777903C6.04546 0.597446 6.29021 0.496065 6.54542 0.496065C6.80062 0.496065 7.04537 0.597446 7.22583 0.777903L15.0554 8.60749C15.5001 9.05329 15.8526 9.58238 16.0926 10.1645C16.3327 10.7466 16.4557 11.3703 16.4546 12Z" fill="black"/>
</g>
<defs>
<clipPath id="clip0_39_183">
<rect width="23" height="23" fill="white" transform="matrix(0 -1 1 0 0 23.5)"/>
</clipPath>
</defs>
</svg>
