<svg width="23" height="11" viewBox="0 0 23 11" fill="none" xmlns="http://www.w3.org/2000/svg">
<path d="M11.5 0.0454178C12.1297 0.0442934 12.7534 0.167286 13.3355 0.407365C13.9176 0.647444 14.4467 0.9999 14.8925 1.44458L22.7221 9.27417C22.9025 9.45463 23.0039 9.69938 23.0039 9.95458C23.0039 10.2098 22.9025 10.4545 22.7221 10.635C22.5416 10.8155 22.2969 10.9168 22.0417 10.9168C21.7864 10.9168 21.5417 10.8155 21.3612 10.635L13.5317 2.80542C12.9926 2.26702 12.2619 1.96461 11.5 1.96461C10.7381 1.96461 10.0074 2.26702 9.46832 2.80542L1.63873 10.635C1.45828 10.8155 1.21353 10.9168 0.958319 10.9168C0.703114 10.9168 0.458361 10.8155 0.277903 10.635C0.0974464 10.4545 -0.00393486 10.2098 -0.00393486 9.95458C-0.00393486 9.69938 0.0974464 9.45463 0.277903 9.27417L8.10749 1.44458C8.55329 0.9999 9.08238 0.647444 9.66448 0.407365C10.2466 0.167286 10.8703 0.0442934 11.5 0.0454178Z" fill="black"/>
</svg>
